<svg viewBox="0 25.5 201.1 115.26" xmlns="http://www.w3.org/2000/svg" id="Layer_1" style="max-height: 500px" width="201.1" height="115.26"><style>.st0{fill:#ffc425}.st1{fill:#fff}.st2{fill:#231f1f}</style><title>grand_tour_tdf_spectator</title><g transform="translate(-440 -810)" id="Logos-_x2F_-Icons"><g transform="translate(440 810)" id="grand_tour_tdf_spectator"><path d="M0 0h201v170H0z" class="st0" id="Rectangle-52"/><g transform="translate(44 37)" id="Imported-Layers-2"><path d="M86.3 31.6c-3.5 4.1-4.7 8.5-3 15 2.9 11 19.4 11.2 26.1 4 6.9-7.5.6-21.1-6.8-23.1-6.6-1.9-13.5.7-16.3 4.1" class="st1" id="Fill-1"/><path d="M50.6 33.9c-2.6.7-5.3 1.1-7.5 2.7-6.6 4.6-7 16.1.6 20 4.1 2.1 9.2 1.5 12.5-1.7 3.7-3.5 4-9.9.9-14-.9-1.2-2.2-2.3-3.7-2.8-2.6-.7-5.8 0-7.9 1.6-.6.4-.9.9-1.2 1.5l-.5-.1c.5-3.9 4.7-5.6 8.2-5.9 4.8-.3 8.7 3.3 10.5 7.6 1.8 4.5 1.4 9.8-1.3 13.9-1.6 2.4-4 4.4-6.6 5.5-7.8 3.4-17.7-1.6-20-9.7-1.9-6.6.9-14.8 7.2-18 1.5-.7 3.3-1.3 5-1.3 1.4-.1 2.6.3 3.8.7" class="st2" id="Fill-2"/><path d="M61.6 22.8c1.1 4.1 1.8 8.4 3.9 12.2l.2-.5 1.2-10.4.4-.1c1 3 1.9 5.9 2.2 9 .2 2.1-.3 5-2.1 6.3-1.7 1.3-4 .2-5-1.5-.9-1.6-1.6-3.7-1.7-5.5-.3-3.1.3-6.3.9-9.5" class="st2" id="Fill-3"/><path d="M47.9 48.4c.1.2.6.6.8.7 1 .5 1.9-.1 2-1 .1-.7.1-1.4-.6-1.8-.9-.5-2.8.3-2.2 2.1" class="st2" id="Fill-4"/><path d="M59.2 64.8l2.1 5.3c.4-1.6.7-3.2 1.3-4.7.4-1.1 1.2-2.2 2.5-2.2.6 0 1.4.2 1.8.7.6.7 1 1.5 1.3 2.4 1 2.9 1.4 5.9 2 8.9l1.1 4.6-.4.2c-1.1-1.3-2.2-2.6-2.9-4.2l-2.1-5.3c-.6 3.2-1.5 6-2.5 9.1-.1.2-.1.4-.2.6l-.2.2-.2.3-3.3-1.7v-1.3l-.3-12.9" class="st2" id="Fill-5"/><path d="M83.4 58.9c-.7.9-1.4 1.7-2 2.6-.8 1.3-1.5 2.7-2 4.1-.5 1.4-1.1 4.9-.4 6.1.3.6 1 1.1 1.6 1.3 1 .4 2 .5 3.1.7l3.1.5.1.4c-2.7 1-5.3 2.2-8.2 1.4-1.4-.4-2.6-1.3-3.5-2.5-1.1-1.7-1.4-4-.8-5.9 1.1-3.5 3.4-6.7 6.6-8.6.4-.2.9-.4 1.3-.4.3-.1.7.1 1.1.3" class="st2" id="Fill-6"/><path d="M92.2 62.1l.4.8c.1-.1.2-.1.2-.2 1-1.1 1.6-2 2.3-3.5.7-1.5.9-2.6 1.1-3.6l-.2.1-.7.5c-1.6 1.3-2.5 3.4-3 5.3 0 .2-.1.4-.1.6m-.3 1.7c-.1.7-.1 1.4-.1 2.1 0 1.5.2 3.2 1.1 4.5.3.4.7.8 1.3.9 1.1.2 2.3-.1 3.2-.6 2.1-1 4-2.4 5.9-3.7l3.8-2.7.3.3c-2.3 2.8-4.5 5.6-7.2 8-.8.7-1.7 1.2-2.7 1.6-1.4.6-3 1-4.6.6-1.4-.3-2.8-1.2-3.6-2.4-.7-1.1-1.3-2.2-1.6-3.4-.5-2-.7-4-.4-5.9.3-2 1-3.9 2-5.7 1.5-2.7 4.1-5.3 7.3-5.5 1.3-.1 2.6.7 2.8 2 .3 1.4-.2 3-.8 4.1-.8 1.7-1.9 3.2-3.2 4.5-.5.6-2.1 2-3.2 1.6-.1 0-.2-.1-.3-.3" class="st2" id="Fill-7"/><path d="M26 89.9c-.7-1.7-1.5-3.5-1.7-5.3-.5-4.3-.8-8.1-.1-12.2.3-1.7 1.2-3.5 2.9-4.1 1.7-.6 3.4.3 4.5 1.5 1.8 1.9 3.1 4.6 2.7 7.3-.3 2.6-1.2 4-2.6 6.1l.4.5 4 2.9 3 2.3-.1.3c-3.5-1.1-7-2-9.8-4.1-.3-.2-.6-.7-.7-1-.3-.7-.3-1.4 0-2 .3-.8.9-1.4 1.1-2.2 1.2-3.1.4-5-1.3-6.7-.2.5-.4 1.1-.5 1.7l-1.1 9.7-.7 5.3" class="st2" id="Fill-8"/><path d="M50.9 69.3l-.5-1.1c-2.4 4.2-4 10.1-4.4 12.7 1.4-.6 2.5-1.8 3.1-3.4.3-.8.4-1.6.5-2.4.1-.8 0-1.7 0-2.5.1-.7.9-1.4 1.7-1.2.5.1.9.4 1.1.8l3.4 7.4-.3.3-2.8-3.1v.4c-.1 1.9-1 3.9-2.2 5.4-1.9 2.4-7.2 6.1-9.5 3.5-1.1-1.2-.5-3 0-4.3 1.2-3.2 2.6-6.3 4.3-9.3 1.2-2.1 2-3.2 3.5-5.1.4-.5 1.3-1 1.9-.8.4.2.6.6.7 1 0 .3 0 .7-.1 1l-.4.7" class="st2" id="Fill-9"/><path d="M95.7 17c.1 2.6 2.8 3.4 4.1 2.3 1.4-1.1 1.3-2.6.1-3.9-1.1-1.2-4.3 0-4.2 1.6" class="st2" id="Fill-10"/><path d="M72.2 54.2c-.1-9.2.3-18.4 0-27.6l-.2-6.1c0-2 1.5-3.9 3.3-4.7 1.8-.8 3.6-1.3 5.6-1.6 2.1-.2 4.2-.1 6.3.2 1 .1 2.1.4 3 .9 1.5.7 3.5 1.7 3.6 3.6.1 1.5-1 2.6-2 3.4l-1.3 1-2.7 2-1.5 1.4.4.4 1.3.9 6.5 5.4-.3.4-7.5-3.4c-1.4-.7-3-1.4-3.8-2.8-.3-.6-.2-1.6.2-2.1 1.5-1.9 3.2-3.5 4.9-5.2.2-.2.4-.3.6-.5-.3-.1-.6-.2-.9-.2-1.1-.2-2.3-.2-3.5-.2-1.6.1-3.1.5-4.6.9l-1.7.6-.5.1c0 .6 0 1.3-.1 1.9-.1 1.3-.1 2.6-.2 3.8-.7 8.8-1.5 15.5-3.5 25-.4.6-1.1 2-1.4 2.5" class="st2" id="Fill-11"/><path d="M54.1 12.1c.1.1.1 0 .2 0 .8-.4 1.5-1.3 1.8-2.1.4-.8.6-1.6.6-2.5v-.1l-.4.2-.4.3c-1 .8-1.6 2.1-2 3.4 0 0 0 .1-.1.2 0 .1.1.4.3.6m-.6.1c-.3 1.3-.5 2.7.1 3.9.2.3.5.7.8.8.8.3 1.8-.1 2.5-.5 1.3-.7 2.4-1.6 3.5-2.5l.2.1c-.9 2.5-3.1 4.6-5.8 5-1.5.2-2.9-1-3.6-2.3-.9-1.9-.8-4.4-.2-6.3.8-2.3 2.6-4.5 5-5.1.6-.2 1.3 0 1.8.4.8.7.8 1.8.6 2.7-.3 1.5-1.1 2.8-2.3 3.7-.5.4-1.2.8-1.9.9-.3 0-.6-.2-.8-.4.1-.2.1-.3.1-.4" class="st2" id="Fill-12"/><path d="M43.1.7c.7 1.2 1.4 2.6 1.7 4.3.5 2.9.8 5.8.8 8.7v4.2l.1.8.2.7c.1.2.1.4.2.6.6-.1 1.1-.3 1.7-.5 1-.4 2.1-.7 3.1-1l.1.2c-.7.8-1.5 1.7-2.3 2.4-.8.6-1.8 1.3-2.9 1.4-.4 0-.8 0-1.1-.2-.8-.7-1.3-1.7-1.7-2.8-.4-1.1-.6-2.2-.7-3.3-.2-2.4.1-4.8.2-7.2.1-2.1.2-4.1.3-6.2 0-.7.1-1.4.3-2.1" class="st2" id="Fill-13"/><path d="M13.6 49.3h.1c1-.1 1.5-1.3 1.2-2.1h-.2l-.2.1-.2.1c-.3.5-.6 1.2-.7 1.9M13.5 49.6v.1c0 .4 0 1.2.6 1.4.4.1.9-.1 1.2-.2.4-.2.8-.5 1.2-.8l.1.1c-.2.3-.3.6-.5.9-.5.6-1.4 1.2-2.2 1-.8-.1-1.3-.8-1.5-1.5-.4-1.5.1-3.4 1.4-4.2.6-.4 1.4-.5 1.9.1.4.6.3 1.3.1 1.9-.3.7-1.1 1.5-2 1.3-.1 0-.2 0-.3-.1" class="st2" id="Fill-14"/><path d="M8.8 48.8c-.2-.1-.5-.3-.8-.2-.6.2-1 1.1-1.2 1.6-.2.7-.3 1.4-.3 2.2v.3l.2.3v.1h.1c.4-.2.8-.8 1-1.1.4-.9.7-1.8.9-2.7l.1-.5m.1-.3l.1-1.1v-.8c-.1-.8-.1-1.5-.1-2.3 0-.3.3-.6.6-.7.3 0 .6.3.6.6.2 1 .3 2.1.3 3.1 0 .6-.1 1.2-.2 1.8l.1 1 .6 2.3-.1.1c-.3-.7-.6-1.3-.9-2-.1.3-.2.7-.4 1-.3.8-.8 1.4-1.4 2-.5.6-1.5 1-2.2.4-.3-.2-.4-.7-.5-1.1-.2-1 .1-2.1.5-3 .4-.8 1.2-2.1 2.3-1.8.4.2.5.3.7.5" class="st2" id="Fill-15"/><path d="M9.5 32.6C13.8 31.4 18 30 22.4 29c2.5-.6 5.1-.8 7.6-1.4 2.7-.6 5.3-1.4 7.9-2.1l.2.2c-2.1 1.9-4 3.9-6.6 5.2-1.3.7-2.8 1.3-4.2 1.7l.2 1.2 1.7 9.8c.3 5.2.8 10.5-.2 15.6l-1.3 3.9-.4-.1-1.8-8.4-1.7-15.9c0-1.8 0-3.7.2-5.6h-.7c-4.6.2-9.2-.2-13.8-.5" class="st2" id="Fill-16"/><path d="M23.3 54.1c-1.9.8-4.6 2.3-6.5 4-2.3 2-3.5 4.9-3.9 7.9-.1.6-.2 1.1-.2 1.7 3.1-.7 6.4-.6 9.6-.7v.6c-3.2 1.9-6.2 4.5-9.7 5.8 0 .5.1.9.1 1.4.4 4.6 1.4 9 2.5 13.5l1.7 6.3-.4.2c-3.5-4.4-5.4-8.1-7.2-13.4-.7-2-1.2-4-1.6-6 0-.3-.1-.6-.1-.9-2.4.2-4.9.1-7.3.1 2.4-1.5 4.7-3.3 7.2-4.8.1-1.7.4-3.3.8-4.9 1-3.7 3.3-7.4 6.7-9.4 3.2-1.9 6.4-1.9 8.3-1.4" class="st2" id="Fill-17"/></g></g></g></svg>